<?xml version="1.0" standalone="no"?>
<!DOCTYPE svg PUBLIC "-//W3C//DTD SVG 20010904//EN"
 "http://www.w3.org/TR/2001/REC-SVG-20010904/DTD/svg10.dtd">
<svg version="1.0" xmlns="http://www.w3.org/2000/svg"
 width="1133.000000pt" height="1133.000000pt" viewBox="0 0 1133.000000 1133.000000"
 preserveAspectRatio="xMidYMid meet">
<metadata>
Created by potrace 1.14, written by Peter Selinger 2001-2017
</metadata>
<g transform="translate(0.000000,1133.000000) scale(0.100000,-0.100000)"
fill="#000000" stroke="none">
<path d="M5430 10336 c-3 -3 -44 -6 -90 -7 -47 -1 -119 -8 -160 -15 -41 -7
-104 -16 -140 -19 -150 -14 -248 -27 -295 -41 -27 -8 -84 -19 -125 -25 -41 -5
-111 -21 -155 -34 -44 -13 -106 -29 -138 -35 -33 -7 -75 -19 -95 -27 -20 -8
-70 -24 -110 -34 -41 -11 -84 -26 -95 -33 -12 -8 -35 -17 -52 -20 -98 -23
-431 -172 -670 -302 -33 -18 -80 -43 -105 -56 -25 -13 -76 -44 -115 -69 -38
-26 -80 -52 -93 -58 -13 -7 -31 -19 -40 -27 -9 -7 -49 -35 -89 -61 -230 -154
-501 -385 -723 -617 -52 -55 -104 -109 -116 -120 -123 -124 -459 -569 -511
-676 -10 -19 -25 -44 -34 -55 -9 -11 -31 -46 -49 -79 -17 -32 -44 -79 -59
-105 -46 -79 -136 -261 -186 -376 -26 -60 -60 -140 -76 -176 -16 -36 -29 -71
-29 -77 0 -7 -9 -31 -19 -55 -28 -63 -81 -223 -97 -294 -7 -35 -20 -77 -27
-95 -8 -18 -20 -64 -26 -103 -7 -38 -21 -95 -32 -125 -10 -30 -25 -110 -33
-178 -9 -68 -18 -127 -21 -131 -17 -29 -39 -289 -27 -321 l10 -25 10 25 c5 14
17 84 26 157 9 73 23 148 32 168 8 20 21 73 30 118 8 45 24 111 36 146 11 36
29 94 39 130 15 58 36 117 103 301 9 25 26 64 36 87 11 24 20 45 20 48 0 14
135 294 191 395 59 108 151 265 158 270 4 3 20 28 36 55 15 28 40 66 55 85 15
19 49 67 75 105 40 59 87 119 140 181 6 7 24 29 40 50 115 144 386 424 505
519 36 29 94 78 130 110 36 31 103 84 150 118 47 34 87 64 90 67 12 13 89 70
95 70 8 0 145 90 163 107 6 6 22 15 34 19 12 3 44 21 72 39 80 51 310 168 431
220 61 25 124 53 140 62 35 19 197 77 272 99 29 8 72 23 95 33 24 10 72 24
108 31 36 7 77 19 91 26 14 7 57 18 95 25 77 13 169 35 184 44 8 5 44 10 220
30 30 4 105 16 165 27 100 19 145 21 510 20 319 0 418 -4 490 -16 50 -9 155
-25 235 -35 80 -11 190 -31 245 -45 55 -14 110 -26 122 -26 12 0 46 -9 75 -19
29 -11 85 -27 123 -35 39 -9 90 -24 115 -35 25 -10 68 -26 95 -34 75 -24 207
-72 230 -84 11 -6 67 -30 125 -54 118 -49 319 -150 427 -215 39 -24 74 -44 78
-44 4 0 25 -13 48 -29 23 -15 61 -38 85 -50 49 -25 60 -21 116 45 76 90 246
350 246 376 0 19 -24 40 -75 67 -22 12 -89 50 -150 85 -140 82 -428 226 -452
226 -6 0 -37 14 -68 30 -31 17 -62 30 -69 30 -7 0 -34 11 -62 24 -27 13 -65
27 -84 31 -19 4 -51 15 -70 25 -19 9 -60 23 -90 30 -30 6 -71 19 -90 28 -19 9
-78 26 -130 38 -52 13 -131 32 -175 43 -44 12 -92 21 -106 21 -15 0 -46 7 -70
15 -23 9 -102 22 -173 31 -117 13 -308 39 -376 50 -39 7 -564 16 -570 10z"/>
<path d="M8720 10118 c0 -7 -13 -38 -29 -68 -15 -30 -34 -73 -41 -95 -15 -49
-199 -421 -242 -490 -250 -401 -432 -614 -758 -889 -195 -164 -540 -364 -795
-461 -174 -67 -461 -152 -472 -141 -2 2 8 27 23 56 80 160 104 336 65 490 -12
47 -31 108 -43 135 -71 171 -236 329 -413 398 -91 36 -157 47 -270 47 -222 0
-372 -63 -530 -224 -142 -145 -209 -308 -208 -511 0 -70 6 -133 17 -171 9 -34
16 -67 16 -72 0 -12 1 -12 -230 -42 -230 -30 -481 -91 -706 -171 -44 -16 -84
-29 -88 -29 -5 0 -34 -11 -65 -24 -31 -13 -92 -38 -136 -56 -77 -31 -116 -49
-270 -121 -231 -107 -582 -318 -826 -496 -319 -232 -676 -586 -855 -848 -63
-91 -108 -164 -143 -229 -51 -97 -43 -99 65 -16 114 88 124 95 179 134 151
106 313 216 415 281 159 103 164 106 265 165 86 51 118 69 230 132 112 63 435
215 495 233 14 4 30 11 35 16 15 11 268 94 335 109 30 7 78 19 105 27 32 10
116 17 235 20 l185 5 108 -36 c144 -49 212 -97 306 -216 89 -112 162 -330 181
-535 19 -205 8 -500 -23 -630 -8 -33 -22 -96 -32 -140 -9 -44 -23 -96 -30
-115 -8 -19 -21 -60 -29 -90 -16 -63 -99 -266 -159 -390 -57 -119 -205 -363
-306 -505 -240 -339 -562 -674 -931 -972 -366 -294 -858 -594 -1270 -774 -63
-28 -128 -57 -145 -64 -208 -93 -611 -224 -870 -284 -115 -26 -182 -40 -345
-72 -79 -15 -182 -28 -280 -34 -52 -4 -106 -9 -120 -11 -14 -3 -61 -7 -105
-10 -44 -3 -87 -8 -95 -11 -8 -4 -19 -5 -25 -4 -5 2 -6 -1 -2 -6 5 -4 12 -8
15 -9 4 0 27 -4 52 -7 25 -4 81 -9 125 -12 44 -2 116 -7 160 -10 137 -10 565
-13 665 -5 52 4 156 11 230 14 294 15 435 31 775 87 210 34 328 57 385 72 30
9 91 23 135 32 44 9 107 25 140 35 33 10 116 35 185 55 142 42 360 114 375
125 6 3 29 12 53 19 24 7 72 25 107 42 35 16 67 29 71 29 14 0 469 222 548
268 151 86 336 205 444 284 88 64 275 209 282 218 3 3 48 44 100 90 113 99
267 253 370 370 41 47 77 87 80 90 3 3 33 39 66 80 251 311 497 723 654 1095
23 55 53 125 66 156 13 31 24 60 24 65 0 5 6 20 13 34 7 14 21 50 31 80 9 30
28 84 41 120 54 147 125 403 156 565 11 61 28 144 36 185 13 60 27 438 23 606
0 12 71 54 91 54 24 0 310 138 427 206 504 293 905 699 1213 1232 43 75 79
141 79 147 0 5 9 20 18 33 l18 24 50 -40 c96 -76 433 -418 521 -527 229 -286
317 -412 457 -651 111 -190 231 -435 296 -604 59 -152 84 -220 97 -260 8 -25
27 -85 43 -135 15 -49 34 -117 40 -150 7 -33 17 -68 22 -79 5 -10 16 -55 24
-100 26 -155 45 -260 50 -268 3 -4 11 -76 19 -160 8 -84 19 -202 25 -263 18
-189 12 -476 -15 -755 -13 -140 -30 -284 -38 -320 -8 -36 -20 -96 -27 -135
-32 -180 -119 -490 -190 -675 -18 -47 -42 -112 -55 -145 -87 -230 -328 -680
-460 -861 -16 -23 -37 -52 -45 -64 -30 -46 -157 -211 -240 -311 -162 -198
-420 -449 -665 -648 -227 -183 -516 -367 -802 -510 -117 -59 -180 -87 -378
-170 -167 -70 -465 -161 -660 -202 -49 -10 -126 -28 -170 -39 -93 -23 -114
-26 -215 -35 -110 -9 -224 -26 -235 -36 -21 -20 215 -6 455 26 19 2 58 7 85
11 344 41 908 200 1191 335 22 10 44 19 47 19 24 0 440 213 527 270 8 5 29 17
45 26 25 14 175 113 275 182 342 234 724 595 1002 945 49 62 92 117 96 122 4
6 30 42 58 80 85 117 264 396 264 411 0 2 11 21 24 42 43 68 226 439 226 458
0 3 11 29 24 57 13 29 33 80 45 115 13 34 29 75 37 90 8 15 14 32 14 39 0 6
15 58 34 115 60 182 73 230 110 388 150 648 166 1321 47 1997 -23 128 -71 338
-100 433 -58 186 -103 327 -111 345 -5 11 -23 58 -40 105 -17 46 -35 89 -39
95 -5 5 -12 21 -16 35 -18 58 -183 396 -230 470 -14 22 -25 42 -25 45 0 3 -20
36 -45 75 -25 39 -45 73 -45 76 0 26 -353 507 -433 589 -7 7 -41 45 -77 86
-100 115 -334 343 -470 459 -68 58 -139 119 -158 136 l-35 30 16 65 c9 35 27
102 40 149 36 127 64 251 87 383 22 131 25 187 10 187 -5 0 -10 -6 -10 -12z"/>
<path d="M4172 6859 c-23 -4 -66 -24 -95 -43 -71 -48 -112 -113 -127 -202 -12
-66 -11 -76 10 -139 28 -84 80 -144 158 -181 50 -24 64 -26 141 -22 70 4 95
10 133 32 164 94 199 325 72 465 -26 28 -51 51 -57 51 -6 0 -18 6 -26 14 -17
15 -108 37 -144 35 -12 -1 -41 -5 -65 -10z"/>
<path d="M4009 5891 c-89 -18 -171 -77 -209 -152 -29 -57 -28 -210 1 -259 30
-49 58 -78 104 -108 36 -23 51 -26 140 -26 132 -1 181 24 247 127 36 57 49
158 28 223 -41 127 -187 218 -311 195z"/>
<path d="M6446 5638 c-26 -60 -76 -193 -76 -202 0 -5 -11 -34 -24 -65 -14 -31
-46 -105 -71 -166 -72 -170 -230 -478 -309 -603 -14 -23 -26 -44 -26 -48 0 -3
-11 -19 -25 -36 -14 -16 -25 -36 -25 -43 0 -26 14 -25 355 17 165 21 222 22
700 22 345 0 538 -4 575 -11 66 -14 214 -41 290 -53 30 -5 87 -20 125 -34 39
-14 77 -26 85 -26 25 0 222 -103 281 -147 129 -95 209 -224 230 -368 16 -109
-1 -260 -43 -375 -88 -242 -291 -575 -483 -796 -5 -6 -28 -33 -50 -60 -63 -76
-276 -313 -338 -377 -56 -57 -68 -77 -46 -77 13 0 115 66 124 80 3 5 19 15 35
24 64 31 436 313 453 342 4 8 13 14 18 14 10 0 71 50 179 145 112 99 364 362
443 463 234 297 348 525 383 768 17 116 17 127 0 245 -13 96 -25 141 -53 204
-80 176 -189 309 -362 438 -92 69 -115 84 -226 148 -78 46 -282 144 -360 173
-38 15 -83 33 -100 40 -16 8 -55 22 -85 31 -30 10 -68 24 -85 31 -16 8 -61 22
-100 33 -38 10 -119 33 -180 50 -60 17 -148 40 -195 52 -47 11 -125 31 -175
44 -49 13 -112 27 -140 30 -27 4 -84 15 -125 25 -41 10 -113 24 -160 30 -47 7
-121 20 -165 31 -44 10 -107 21 -140 24 -33 4 -68 9 -77 11 -13 4 -22 -4 -32
-28z"/>
<path d="M3520 4950 c-89 -11 -175 -91 -204 -190 -14 -45 -14 -65 -5 -110 51
-249 360 -305 495 -90 55 89 43 225 -29 306 -62 71 -144 98 -257 84z"/>
<path d="M2854 4231 c-42 -7 -106 -48 -134 -85 -28 -38 -49 -101 -49 -148 -1
-76 46 -165 108 -206 88 -57 169 -59 263 -7 60 33 94 80 113 151 25 95 -5 188
-79 249 -59 48 -125 62 -222 46z"/>
<path d="M2078 3685 c-82 -27 -148 -123 -148 -218 0 -59 32 -133 73 -169 62
-54 177 -75 250 -45 81 35 147 128 147 210 0 81 -58 175 -130 212 -46 24 -135
28 -192 10z"/>
</g>
</svg>
